<?xml version="1.0" encoding="iso-8859-1"?>
<!-- Generator: Adobe Illustrator 19.0.0, SVG Export Plug-In . SVG Version: 6.00 Build 0)  -->
<svg version="1.1" id="Layer_1" xmlns="http://www.w3.org/2000/svg" xmlns:xlink="http://www.w3.org/1999/xlink" x="0px" y="0px"
	 viewBox="0 0 512 512" style="enable-background:new 0 0 512 512;" xml:space="preserve">
<polygon style="fill:#F2385A;" points="304.4,22.4 273.2,64 416.4,172 448.4,130.4 "/>
<path d="M301.2,0l-50.4,67.2l168.8,127.2l50.4-67.2L301.2,0z M273.2,64l31.2-41.6l144,108l-32,41.6L273.2,64z"/>
<polygon style="fill:#E8E8E8;" points="58.8,491.2 192.4,457.6 60.4,357.6 "/>
<g>
	
		<rect x="77.039" y="240.418" transform="matrix(-0.6004 0.7997 -0.7997 -0.6004 582.1004 261.9679)" style="fill:#FAD97F;" width="297.12" height="72"/>
	<polygon style="fill:#FAD97F;" points="274,126.4 243.6,104 64.4,341.6 94.8,364 	"/>
	<polygon style="fill:#FAD97F;" points="356.4,189.6 177.2,427.2 207.6,449.6 386.8,212 	"/>
</g>
<path d="M240.4,81.6l-196,260.8L42,512l170.4-43.2l196-260.8L240.4,81.6z M243.6,104l30.4,22.4L94.8,364l-30.4-22.4L243.6,104z
	 M343.6,179.2L165.2,416.8l-57.6-43.2L286,136L343.6,179.2z M177.2,427.2l179.2-237.6l30.4,22.4L207.6,449.6L177.2,427.2z
	 M58.8,491.2l1.6-133.6l132,100L58.8,491.2z"/>
<g>
</g>
<g>
</g>
<g>
</g>
<g>
</g>
<g>
</g>
<g>
</g>
<g>
</g>
<g>
</g>
<g>
</g>
<g>
</g>
<g>
</g>
<g>
</g>
<g>
</g>
<g>
</g>
<g>
</g>
</svg>
